<?xml version="1.0" standalone="no"?>
<!DOCTYPE svg PUBLIC "-//W3C//DTD SVG 20010904//EN"
 "http://www.w3.org/TR/2001/REC-SVG-20010904/DTD/svg10.dtd">
<svg version="1.0" xmlns="http://www.w3.org/2000/svg"
 width="170.000000pt" height="170.000000pt" viewBox="0 0 170.000000 170.000000"
 preserveAspectRatio="xMidYMid meet">
<metadata>
Created by potrace 1.16, written by Peter Selinger 2001-2019
</metadata>
<g transform="translate(0.000000,170.000000) scale(0.100000,-0.100000)"
fill="#000000" stroke="none">
<path d="M750 565 c-30 -17 -64 -19 -91 -5 -16 9 -19 7 -19 -9 0 -33 11 -51
41 -66 66 -35 164 1 164 60 0 27 -3 30 -35 32 -19 2 -46 -4 -60 -12z"/>
<path d="M890 565 c-31 -37 34 -95 107 -95 49 0 89 29 99 73 6 26 -8 38 -21
17 -9 -14 -56 -12 -85 5 -33 19 -84 19 -100 0z"/>
<path d="M50 185 l0 -185 800 0 800 0 0 185 0 185 -800 0 -800 0 0 -185z m964
139 c9 -4 16 -18 16 -34 0 -26 -4 -29 -36 -32 -46 -4 -62 -26 -48 -65 13 -37
65 -45 87 -12 9 11 20 18 26 14 7 -4 11 12 11 49 0 56 0 56 30 56 28 0 30 -3
30 -35 0 -33 2 -35 35 -35 33 0 35 2 35 35 0 32 2 35 30 35 l30 0 0 -100 0
-100 -30 0 c-28 0 -30 2 -30 40 0 39 -1 40 -35 40 -34 0 -35 -1 -35 -40 0 -38
-2 -40 -30 -40 -16 0 -30 5 -30 10 0 6 -13 4 -30 -5 -49 -25 -88 -19 -126 19
-19 19 -34 43 -34 54 0 12 -4 24 -10 27 -5 3 -10 -1 -10 -9 0 -12 -10 -16 -35
-16 -19 0 -35 -4 -35 -10 0 -5 18 -10 40 -10 38 0 40 -2 40 -30 l0 -31 -72 3
-73 3 -2 103 -2 102 74 0 c73 0 75 -1 75 -25 0 -22 -4 -25 -40 -25 -22 0 -40
-4 -40 -10 0 -5 13 -10 29 -10 16 0 36 -3 45 -6 11 -4 16 0 16 12 1 51 83 98
134 78z m-737 -19 c27 -7 35 -28 19 -50 -10 -15 -16 -16 -35 -6 -46 25 -87
-20 -61 -68 11 -22 49 -28 66 -11 7 7 17 4 30 -11 19 -21 19 -21 -5 -40 -44
-35 -120 -20 -146 30 -18 36 -19 77 -2 111 14 28 73 62 97 56 8 -3 25 -7 37
-11z m206 -25 c21 -24 27 -40 27 -75 0 -61 -30 -95 -90 -102 -56 -6 -94 20
-111 76 -9 32 -8 44 7 76 33 70 115 82 167 25z m198 1 c24 -24 29 -38 29 -76
0 -74 -55 -112 -151 -103 l-34 3 -3 103 -3 102 66 0 c60 0 69 -3 96 -29z m729
-6 c0 -22 -4 -25 -40 -25 -22 0 -40 -4 -40 -10 0 -5 18 -10 40 -10 36 0 40 -2
40 -25 0 -23 -4 -25 -41 -25 -28 0 -39 -4 -36 -12 2 -7 21 -13 43 -14 34 0 39
-3 39 -25 0 -23 -2 -24 -70 -24 l-70 0 -3 98 -3 97 71 0 c68 0 70 -1 70 -25z
m160 0 c0 -22 -4 -25 -40 -25 -22 0 -40 -4 -40 -10 0 -5 16 -10 36 -10 33 0
35 -2 32 -27 -3 -25 -7 -28 -35 -25 -32 3 -33 3 -33 -37 0 -39 -2 -41 -30 -41
l-30 0 0 69 c0 38 -3 83 -6 100 l-6 31 76 0 c74 0 76 -1 76 -25z"/>
</g>
</svg>
